<svg width="25" height="25" viewBox="0 0 25 25" fill="none" xmlns="http://www.w3.org/2000/svg">
<path fill-rule="evenodd" clip-rule="evenodd" d="M12.5 23.2143C18.4173 23.2143 23.2143 18.4173 23.2143 12.5C23.2143 6.58266 18.4173 1.78571 12.5 1.78571C6.58266 1.78571 1.78571 6.58266 1.78571 12.5C1.78571 18.4173 6.58266 23.2143 12.5 23.2143ZM12.5 25C19.4036 25 25 19.4036 25 12.5C25 5.59644 19.4036 0 12.5 0C5.59644 0 0 5.59644 0 12.5C0 19.4036 5.59644 25 12.5 25Z" fill="#324A5B"/>
<path fill-rule="evenodd" clip-rule="evenodd" d="M6.51151 6.51151C6.86019 6.16283 7.42552 6.16283 7.7742 6.51151L18.4885 17.2258C18.8372 17.5745 18.8372 18.1398 18.4885 18.4885C18.1398 18.8372 17.5745 18.8372 17.2258 18.4885L6.51151 7.7742C6.16283 7.42552 6.16283 6.86019 6.51151 6.51151Z" fill="#324A5B"/>
<path fill-rule="evenodd" clip-rule="evenodd" d="M18.4885 6.51151C18.8372 6.86019 18.8372 7.42552 18.4885 7.7742L7.7742 18.4885C7.42552 18.8372 6.8602 18.8372 6.51151 18.4885C6.16283 18.1398 6.16283 17.5745 6.51151 17.2258L17.2258 6.51151C17.5745 6.16283 18.1398 6.16283 18.4885 6.51151Z" fill="#324A5B"/>
</svg>
